<svg width="88" height="20" viewBox="0 0 88 20" fill="none" xmlns="http://www.w3.org/2000/svg">
<rect width="88" height="20" rx="10" fill="#D1FAE5"/>
<circle cx="14" cy="10" r="3" fill="#10B981"/>
<path d="M29.708 5.48H30.416L33.956 14H33.068L31.964 11.336H28.136L27.044 14H26.144L29.708 5.48ZM31.772 10.676L30.056 6.464L28.316 10.676H31.772ZM37.5456 14.12C37.0896 14.12 36.6696 14.036 36.2856 13.868C35.9096 13.692 35.5776 13.452 35.2896 13.148C35.0096 12.844 34.7896 12.496 34.6296 12.104C34.4776 11.712 34.4016 11.296 34.4016 10.856C34.4016 10.264 34.5336 9.724 34.7976 9.236C35.0616 8.748 35.4296 8.36 35.9016 8.072C36.3736 7.784 36.9176 7.64 37.5336 7.64C38.1176 7.64 38.6336 7.776 39.0816 8.048C39.5296 8.312 39.8616 8.672 40.0776 9.128L39.2856 9.38C39.1096 9.06 38.8616 8.812 38.5416 8.636C38.2296 8.452 37.8816 8.36 37.4976 8.36C37.0816 8.36 36.7016 8.468 36.3576 8.684C36.0136 8.9 35.7376 9.196 35.5296 9.572C35.3296 9.948 35.2296 10.376 35.2296 10.856C35.2296 11.328 35.3336 11.756 35.5416 12.14C35.7496 12.524 36.0256 12.832 36.3696 13.064C36.7136 13.288 37.0936 13.4 37.5096 13.4C37.7816 13.4 38.0416 13.352 38.2896 13.256C38.5456 13.16 38.7656 13.032 38.9496 12.872C39.1416 12.704 39.2696 12.524 39.3336 12.332L40.1376 12.572C40.0256 12.868 39.8376 13.136 39.5736 13.376C39.3176 13.608 39.0136 13.792 38.6616 13.928C38.3176 14.056 37.9456 14.12 37.5456 14.12ZM44.0729 14.12C43.6169 14.12 43.1969 14.036 42.8129 13.868C42.4369 13.692 42.1049 13.452 41.8169 13.148C41.5369 12.844 41.3169 12.496 41.1569 12.104C41.0049 11.712 40.9289 11.296 40.9289 10.856C40.9289 10.264 41.0609 9.724 41.3249 9.236C41.5889 8.748 41.9569 8.36 42.4289 8.072C42.9009 7.784 43.4449 7.64 44.0609 7.64C44.6449 7.64 45.1609 7.776 45.6089 8.048C46.0569 8.312 46.3889 8.672 46.6049 9.128L45.8129 9.38C45.6369 9.06 45.3889 8.812 45.0689 8.636C44.7569 8.452 44.4089 8.36 44.0249 8.36C43.6089 8.36 43.2289 8.468 42.8849 8.684C42.5409 8.9 42.2649 9.196 42.0569 9.572C41.8569 9.948 41.7569 10.376 41.7569 10.856C41.7569 11.328 41.8609 11.756 42.0689 12.14C42.2769 12.524 42.5529 12.832 42.8969 13.064C43.2409 13.288 43.6209 13.4 44.0369 13.4C44.3089 13.4 44.5689 13.352 44.8169 13.256C45.0729 13.16 45.2929 13.032 45.4769 12.872C45.6689 12.704 45.7969 12.524 45.8609 12.332L46.6649 12.572C46.5529 12.868 46.3649 13.136 46.1009 13.376C45.8449 13.608 45.5409 13.792 45.1889 13.928C44.8449 14.056 44.4729 14.12 44.0729 14.12ZM50.5883 14.12C50.1403 14.12 49.7243 14.036 49.3403 13.868C48.9563 13.692 48.6243 13.456 48.3443 13.16C48.0643 12.856 47.8443 12.508 47.6843 12.116C47.5323 11.724 47.4563 11.304 47.4563 10.856C47.4563 10.272 47.5883 9.736 47.8523 9.248C48.1243 8.76 48.4963 8.372 48.9683 8.084C49.4403 7.788 49.9763 7.64 50.5763 7.64C51.1923 7.64 51.7283 7.788 52.1843 8.084C52.6483 8.38 53.0123 8.772 53.2763 9.26C53.5403 9.74 53.6723 10.268 53.6723 10.844C53.6723 10.908 53.6723 10.972 53.6723 11.036C53.6723 11.092 53.6683 11.136 53.6603 11.168H48.3083C48.3483 11.616 48.4723 12.016 48.6803 12.368C48.8963 12.712 49.1723 12.988 49.5083 13.196C49.8523 13.396 50.2243 13.496 50.6243 13.496C51.0323 13.496 51.4163 13.392 51.7763 13.184C52.1443 12.976 52.4003 12.704 52.5443 12.368L53.2523 12.56C53.1243 12.856 52.9283 13.124 52.6643 13.364C52.4003 13.604 52.0883 13.792 51.7283 13.928C51.3763 14.056 50.9963 14.12 50.5883 14.12ZM48.2843 10.58H52.9043C52.8723 10.124 52.7483 9.724 52.5323 9.38C52.3243 9.036 52.0483 8.768 51.7043 8.576C51.3683 8.376 50.9963 8.276 50.5883 8.276C50.1803 8.276 49.8083 8.376 49.4723 8.576C49.1363 8.768 48.8603 9.04 48.6443 9.392C48.4363 9.736 48.3163 10.132 48.2843 10.58ZM58.1233 14.12C57.6033 14.12 57.1353 13.984 56.7193 13.712C56.3113 13.44 55.9873 13.104 55.7473 12.704V16.556H54.9313V7.748H55.6633V8.96C55.9113 8.568 56.2433 8.252 56.6593 8.012C57.0753 7.764 57.5193 7.64 57.9913 7.64C58.4233 7.64 58.8193 7.732 59.1793 7.916C59.5393 8.092 59.8513 8.332 60.1153 8.636C60.3793 8.94 60.5833 9.288 60.7273 9.68C60.8793 10.064 60.9553 10.464 60.9553 10.88C60.9553 11.464 60.8353 12.004 60.5953 12.5C60.3633 12.988 60.0353 13.38 59.6113 13.676C59.1873 13.972 58.6913 14.12 58.1233 14.12ZM57.8953 13.4C58.2393 13.4 58.5473 13.332 58.8193 13.196C59.0913 13.052 59.3233 12.86 59.5153 12.62C59.7153 12.38 59.8673 12.112 59.9713 11.816C60.0753 11.512 60.1273 11.2 60.1273 10.88C60.1273 10.544 60.0673 10.224 59.9473 9.92C59.8353 9.616 59.6713 9.348 59.4553 9.116C59.2393 8.884 58.9913 8.7 58.7113 8.564C58.4313 8.428 58.1273 8.36 57.7993 8.36C57.5913 8.36 57.3753 8.4 57.1513 8.48C56.9273 8.56 56.7113 8.676 56.5033 8.828C56.3033 8.972 56.1353 9.136 55.9993 9.32C55.8633 9.504 55.7793 9.7 55.7473 9.908V11.828C55.8753 12.124 56.0473 12.392 56.2633 12.632C56.4793 12.864 56.7273 13.052 57.0073 13.196C57.2953 13.332 57.5913 13.4 57.8953 13.4ZM65.2438 13.7C65.1798 13.724 65.0798 13.768 64.9438 13.832C64.8078 13.896 64.6438 13.952 64.4518 14C64.2598 14.048 64.0518 14.072 63.8278 14.072C63.5958 14.072 63.3758 14.028 63.1678 13.94C62.9678 13.852 62.8078 13.72 62.6878 13.544C62.5678 13.36 62.5078 13.136 62.5078 12.872V8.396H61.6438V7.748H62.5078V5.636H63.3238V7.748H64.7638V8.396H63.3238V12.644C63.3398 12.868 63.4198 13.036 63.5638 13.148C63.7158 13.26 63.8878 13.316 64.0798 13.316C64.3038 13.316 64.5078 13.28 64.6918 13.208C64.8758 13.128 64.9878 13.072 65.0278 13.04L65.2438 13.7ZM68.8578 14.12C68.4098 14.12 67.9938 14.036 67.6098 13.868C67.2258 13.692 66.8938 13.456 66.6138 13.16C66.3338 12.856 66.1138 12.508 65.9538 12.116C65.8018 11.724 65.7258 11.304 65.7258 10.856C65.7258 10.272 65.8578 9.736 66.1218 9.248C66.3938 8.76 66.7658 8.372 67.2378 8.084C67.7098 7.788 68.2458 7.64 68.8458 7.64C69.4618 7.64 69.9978 7.788 70.4538 8.084C70.9178 8.38 71.2818 8.772 71.5458 9.26C71.8098 9.74 71.9418 10.268 71.9418 10.844C71.9418 10.908 71.9418 10.972 71.9418 11.036C71.9418 11.092 71.9378 11.136 71.9298 11.168H66.5778C66.6178 11.616 66.7418 12.016 66.9498 12.368C67.1658 12.712 67.4418 12.988 67.7778 13.196C68.1218 13.396 68.4938 13.496 68.8938 13.496C69.3018 13.496 69.6858 13.392 70.0458 13.184C70.4138 12.976 70.6698 12.704 70.8138 12.368L71.5218 12.56C71.3938 12.856 71.1978 13.124 70.9338 13.364C70.6698 13.604 70.3578 13.792 69.9978 13.928C69.6458 14.056 69.2658 14.12 68.8578 14.12ZM66.5538 10.58H71.1738C71.1418 10.124 71.0178 9.724 70.8018 9.38C70.5938 9.036 70.3178 8.768 69.9738 8.576C69.6378 8.376 69.2658 8.276 68.8578 8.276C68.4498 8.276 68.0778 8.376 67.7418 8.576C67.4058 8.768 67.1298 9.04 66.9138 9.392C66.7058 9.736 66.5858 10.132 66.5538 10.58ZM72.7808 10.892C72.7808 10.3 72.9008 9.76 73.1408 9.272C73.3888 8.776 73.7288 8.38 74.1608 8.084C74.5928 7.788 75.0848 7.64 75.6368 7.64C76.1568 7.64 76.6208 7.78 77.0288 8.06C77.4448 8.332 77.7688 8.664 78.0008 9.056V5.24H78.8168V13.016C78.8168 13.128 78.8408 13.212 78.8888 13.268C78.9368 13.316 79.0088 13.344 79.1048 13.352V14C78.9448 14.024 78.8208 14.032 78.7328 14.024C78.5648 14.016 78.4168 13.948 78.2888 13.82C78.1608 13.692 78.0968 13.552 78.0968 13.4V12.788C77.8488 13.196 77.5128 13.52 77.0888 13.76C76.6648 14 76.2248 14.12 75.7688 14.12C75.3368 14.12 74.9368 14.032 74.5688 13.856C74.2088 13.68 73.8928 13.44 73.6208 13.136C73.3568 12.832 73.1488 12.488 72.9968 12.104C72.8528 11.712 72.7808 11.308 72.7808 10.892ZM78.0008 11.852V9.92C77.8968 9.632 77.7288 9.372 77.4968 9.14C77.2648 8.9 77.0008 8.712 76.7048 8.576C76.4168 8.432 76.1288 8.36 75.8408 8.36C75.5048 8.36 75.2008 8.432 74.9288 8.576C74.6568 8.712 74.4208 8.9 74.2208 9.14C74.0288 9.38 73.8808 9.652 73.7768 9.956C73.6728 10.26 73.6208 10.572 73.6208 10.892C73.6208 11.228 73.6768 11.548 73.7888 11.852C73.9088 12.156 74.0768 12.428 74.2928 12.668C74.5088 12.9 74.7568 13.08 75.0368 13.208C75.3168 13.336 75.6208 13.4 75.9488 13.4C76.1568 13.4 76.3728 13.36 76.5968 13.28C76.8208 13.2 77.0328 13.092 77.2328 12.956C77.4408 12.812 77.6128 12.644 77.7488 12.452C77.8848 12.26 77.9688 12.06 78.0008 11.852Z" fill="#10B981"/>
</svg>
