<svg width="72" height="20" viewBox="0 0 72 20" fill="none" xmlns="http://www.w3.org/2000/svg">
<rect width="72" height="20" rx="10" fill="#D1FAE5"/>
<circle cx="14" cy="10" r="3" fill="#10B981"/>
<path d="M26.024 14L29.864 5.6H30.74L34.58 14H33.644L30.116 6.116H30.476L26.948 14H26.024ZM27.536 11.756L27.8 11.036H32.684L32.948 11.756H27.536ZM38.347 14.06C37.723 14.06 37.163 13.924 36.667 13.652C36.179 13.372 35.795 12.992 35.515 12.512C35.235 12.024 35.095 11.468 35.095 10.844C35.095 10.212 35.235 9.656 35.515 9.176C35.795 8.696 36.179 8.32 36.667 8.048C37.163 7.776 37.723 7.64 38.347 7.64C38.883 7.64 39.367 7.744 39.799 7.952C40.231 8.16 40.571 8.472 40.819 8.888L40.183 9.32C39.967 9 39.699 8.764 39.379 8.612C39.059 8.46 38.711 8.384 38.335 8.384C37.887 8.384 37.483 8.488 37.123 8.696C36.763 8.896 36.479 9.18 36.271 9.548C36.063 9.916 35.959 10.348 35.959 10.844C35.959 11.34 36.063 11.772 36.271 12.14C36.479 12.508 36.763 12.796 37.123 13.004C37.483 13.204 37.887 13.304 38.335 13.304C38.711 13.304 39.059 13.228 39.379 13.076C39.699 12.924 39.967 12.692 40.183 12.38L40.819 12.812C40.571 13.22 40.231 13.532 39.799 13.748C39.367 13.956 38.883 14.06 38.347 14.06ZM44.555 14.06C43.963 14.06 43.507 13.9 43.187 13.58C42.867 13.26 42.707 12.808 42.707 12.224V6.308H43.559V12.176C43.559 12.544 43.651 12.828 43.835 13.028C44.027 13.228 44.299 13.328 44.651 13.328C45.027 13.328 45.339 13.22 45.587 13.004L45.887 13.616C45.719 13.768 45.515 13.88 45.275 13.952C45.043 14.024 44.803 14.06 44.555 14.06ZM41.579 8.408V7.7H45.479V8.408H41.579ZM47.438 14V7.7H48.29V14H47.438ZM47.87 6.308C47.694 6.308 47.546 6.248 47.426 6.128C47.306 6.008 47.246 5.864 47.246 5.696C47.246 5.528 47.306 5.388 47.426 5.276C47.546 5.156 47.694 5.096 47.87 5.096C48.046 5.096 48.194 5.152 48.314 5.264C48.434 5.376 48.494 5.516 48.494 5.684C48.494 5.86 48.434 6.008 48.314 6.128C48.202 6.248 48.054 6.308 47.87 6.308ZM52.2807 14L49.4847 7.7H50.3727L52.9407 13.544H52.5207L55.1247 7.7H55.9647L53.1567 14H52.2807ZM59.6648 14.06C59.0088 14.06 58.4328 13.924 57.9368 13.652C57.4408 13.372 57.0528 12.992 56.7728 12.512C56.4928 12.024 56.3528 11.468 56.3528 10.844C56.3528 10.22 56.4848 9.668 56.7488 9.188C57.0208 8.708 57.3888 8.332 57.8528 8.06C58.3248 7.78 58.8528 7.64 59.4368 7.64C60.0288 7.64 60.5528 7.776 61.0088 8.048C61.4728 8.312 61.8368 8.688 62.1008 9.176C62.3648 9.656 62.4968 10.212 62.4968 10.844C62.4968 10.884 62.4928 10.928 62.4848 10.976C62.4848 11.016 62.4848 11.06 62.4848 11.108H57.0008V10.472H62.0288L61.6928 10.724C61.6928 10.268 61.5928 9.864 61.3928 9.512C61.2008 9.152 60.9368 8.872 60.6008 8.672C60.2648 8.472 59.8768 8.372 59.4368 8.372C59.0048 8.372 58.6168 8.472 58.2728 8.672C57.9288 8.872 57.6608 9.152 57.4688 9.512C57.2768 9.872 57.1808 10.284 57.1808 10.748V10.88C57.1808 11.36 57.2848 11.784 57.4928 12.152C57.7088 12.512 58.0048 12.796 58.3808 13.004C58.7648 13.204 59.2008 13.304 59.6888 13.304C60.0728 13.304 60.4288 13.236 60.7568 13.1C61.0928 12.964 61.3808 12.756 61.6208 12.476L62.1008 13.028C61.8208 13.364 61.4688 13.62 61.0448 13.796C60.6288 13.972 60.1688 14.06 59.6648 14.06Z" fill="#10B981"/>
</svg>
