<svg width="20" height="22" viewBox="0 0 20 22" fill="none" xmlns="http://www.w3.org/2000/svg">
                  <path d="M10 5.44V8.77" stroke="#70757C" stroke-width="1.5" stroke-miterlimit="10" stroke-linecap="round"/>
                  <path d="M10.02 1C6.33999 1 3.35999 3.98 3.35999 7.66V9.76C3.35999 10.44 3.07999 11.46 2.72999 12.04L1.45999 14.16C0.679989 15.47 1.21999 16.93 2.65999 17.41C7.43999 19 12.61 19 17.39 17.41C18.74 16.96 19.32 15.38 18.59 14.16L17.32 12.04C16.97 11.46 16.69 10.43 16.69 9.76V7.66C16.68 4 13.68 1 10.02 1Z" stroke="#70757C" stroke-width="1.5" stroke-miterlimit="10" stroke-linecap="round"/>
                  <path d="M13.33 17.82C13.33 19.65 11.83 21.15 10 21.15C9.09001 21.15 8.25001 20.77 7.65001 20.17C7.05001 19.57 6.67001 18.73 6.67001 17.82" stroke="#70757C" stroke-width="1.5" stroke-miterlimit="10"/>
                  </svg>