<svg width="10" height="10" viewBox="0 0 10 10" fill="none" xmlns="http://www.w3.org/2000/svg">
                            <path d="M5.00001 9.47918C2.52918 9.47918 0.520844 7.47084 0.520844 5.00001C0.520844 2.52918 2.52918 0.520844 5.00001 0.520844C7.47084 0.520844 9.47918 2.52918 9.47918 5.00001C9.47918 7.47084 7.47084 9.47918 5.00001 9.47918ZM5.00001 1.14584C2.87501 1.14584 1.14584 2.87501 1.14584 5.00001C1.14584 7.12501 2.87501 8.85418 5.00001 8.85418C7.12501 8.85418 8.85418 7.12501 8.85418 5.00001C8.85418 2.87501 7.12501 1.14584 5.00001 1.14584Z" fill="#5F5D5D"/>
                            <path d="M5 5.72918C4.82917 5.72918 4.6875 5.58751 4.6875 5.41668V3.33334C4.6875 3.16251 4.82917 3.02084 5 3.02084C5.17083 3.02084 5.3125 3.16251 5.3125 3.33334V5.41668C5.3125 5.58751 5.17083 5.72918 5 5.72918Z" fill="#5F5D5D"/>
                            <path d="M5.00001 7.08333C4.94584 7.08333 4.89168 7.07083 4.84168 7.04999C4.79168 7.02916 4.74584 6.99999 4.70418 6.96249C4.66668 6.92083 4.63751 6.87916 4.61668 6.82499C4.59584 6.77499 4.58334 6.72083 4.58334 6.66666C4.58334 6.61249 4.59584 6.55833 4.61668 6.50833C4.63751 6.45833 4.66668 6.41249 4.70418 6.37083C4.74584 6.33333 4.79168 6.30416 4.84168 6.28333C4.94168 6.24166 5.05834 6.24166 5.15834 6.28333C5.20834 6.30416 5.25418 6.33333 5.29584 6.37083C5.33334 6.41249 5.36251 6.45833 5.38334 6.50833C5.40418 6.55833 5.41668 6.61249 5.41668 6.66666C5.41668 6.72083 5.40418 6.77499 5.38334 6.82499C5.36251 6.87916 5.33334 6.92083 5.29584 6.96249C5.25418 6.99999 5.20834 7.02916 5.15834 7.04999C5.10834 7.07083 5.05418 7.08333 5.00001 7.08333Z" fill="#5F5D5D"/>
                            </svg>