 <svg width="32" height="32" viewBox="0 0 32 32" fill="none" xmlns="http://www.w3.org/2000/svg">
                          <rect width="32" height="32" rx="6" fill="#E7F8F2"/>
                          <path d="M20.1667 23.0833H11.8333C9.33332 23.0833 7.66666 21.8333 7.66666 18.9167V13.0833C7.66666 10.1667 9.33332 8.91666 11.8333 8.91666H20.1667C22.6667 8.91666 24.3333 10.1667 24.3333 13.0833V18.9167C24.3333 21.8333 22.6667 23.0833 20.1667 23.0833Z" stroke="#10B981" stroke-width="1.5" stroke-miterlimit="10" stroke-linecap="round" stroke-linejoin="round"/>
                          <path d="M16 18.5C17.3807 18.5 18.5 17.3807 18.5 16C18.5 14.6193 17.3807 13.5 16 13.5C14.6193 13.5 13.5 14.6193 13.5 16C13.5 17.3807 14.6193 18.5 16 18.5Z" stroke="#10B981" stroke-width="1.5" stroke-miterlimit="10" stroke-linecap="round" stroke-linejoin="round"/>
                          <path d="M21.8333 11.8333H19.3333" stroke="#10B981" stroke-width="1.5" stroke-miterlimit="10" stroke-linecap="round" stroke-linejoin="round"/>
                          <path d="M12.6667 20.1667H10.1667" stroke="#10B981" stroke-width="1.5" stroke-miterlimit="10" stroke-linecap="round" stroke-linejoin="round"/>
                          </svg>