<svg width="88" height="20" viewBox="0 0 84 20" fill="none" xmlns="http://www.w3.org/2000/svg">
<rect width="84" height="20" rx="10" fill="#FFE4E6"/>
<circle cx="14" cy="10" r="3" fill="#F43F5E"/>
<path d="M27.068 14V5.48H29.96C30.864 5.48 31.616 5.672 32.216 6.056C32.824 6.432 33.28 6.944 33.584 7.592C33.888 8.232 34.04 8.944 34.04 9.728C34.04 10.592 33.872 11.344 33.536 11.984C33.208 12.624 32.736 13.12 32.12 13.472C31.512 13.824 30.792 14 29.96 14H27.068ZM33.2 9.728C33.2 9.048 33.072 8.444 32.816 7.916C32.568 7.388 32.204 6.976 31.724 6.68C31.244 6.376 30.656 6.224 29.96 6.224H27.908V13.256H29.96C30.664 13.256 31.256 13.1 31.736 12.788C32.216 12.476 32.58 12.056 32.828 11.528C33.076 10.992 33.2 10.392 33.2 9.728ZM38.1781 14.12C37.7301 14.12 37.3141 14.036 36.9301 13.868C36.5461 13.692 36.2141 13.456 35.9341 13.16C35.6541 12.856 35.4341 12.508 35.2741 12.116C35.1221 11.724 35.0461 11.304 35.0461 10.856C35.0461 10.272 35.1781 9.736 35.4421 9.248C35.7141 8.76 36.0861 8.372 36.5581 8.084C37.0301 7.788 37.5661 7.64 38.1661 7.64C38.7821 7.64 39.3181 7.788 39.7741 8.084C40.2381 8.38 40.6021 8.772 40.8661 9.26C41.1301 9.74 41.2621 10.268 41.2621 10.844C41.2621 10.908 41.2621 10.972 41.2621 11.036C41.2621 11.092 41.2581 11.136 41.2501 11.168H35.8981C35.9381 11.616 36.0621 12.016 36.2701 12.368C36.4861 12.712 36.7621 12.988 37.0981 13.196C37.4421 13.396 37.8141 13.496 38.2141 13.496C38.6221 13.496 39.0061 13.392 39.3661 13.184C39.7341 12.976 39.9901 12.704 40.1341 12.368L40.8421 12.56C40.7141 12.856 40.5181 13.124 40.2541 13.364C39.9901 13.604 39.6781 13.792 39.3181 13.928C38.9661 14.056 38.5861 14.12 38.1781 14.12ZM35.8741 10.58H40.4941C40.4621 10.124 40.3381 9.724 40.1221 9.38C39.9141 9.036 39.6381 8.768 39.2941 8.576C38.9581 8.376 38.5861 8.276 38.1781 8.276C37.7701 8.276 37.3981 8.376 37.0621 8.576C36.7261 8.768 36.4501 9.04 36.2341 9.392C36.0261 9.736 35.9061 10.132 35.8741 10.58ZM45.2331 14.12C44.7771 14.12 44.3571 14.036 43.9731 13.868C43.5971 13.692 43.2651 13.452 42.9771 13.148C42.6971 12.844 42.4771 12.496 42.3171 12.104C42.1651 11.712 42.0891 11.296 42.0891 10.856C42.0891 10.264 42.2211 9.724 42.4851 9.236C42.7491 8.748 43.1171 8.36 43.5891 8.072C44.0611 7.784 44.6051 7.64 45.2211 7.64C45.8051 7.64 46.3211 7.776 46.7691 8.048C47.2171 8.312 47.5491 8.672 47.7651 9.128L46.9731 9.38C46.7971 9.06 46.5491 8.812 46.2291 8.636C45.9171 8.452 45.5691 8.36 45.1851 8.36C44.7691 8.36 44.3891 8.468 44.0451 8.684C43.7011 8.9 43.4251 9.196 43.2171 9.572C43.0171 9.948 42.9171 10.376 42.9171 10.856C42.9171 11.328 43.0211 11.756 43.2291 12.14C43.4371 12.524 43.7131 12.832 44.0571 13.064C44.4011 13.288 44.7811 13.4 45.1971 13.4C45.4691 13.4 45.7291 13.352 45.9771 13.256C46.2331 13.16 46.4531 13.032 46.6371 12.872C46.8291 12.704 46.9571 12.524 47.0211 12.332L47.8251 12.572C47.7131 12.868 47.5251 13.136 47.2611 13.376C47.0051 13.608 46.7011 13.792 46.3491 13.928C46.0051 14.056 45.6331 14.12 45.2331 14.12ZM49.143 5.24H49.959V12.584C49.959 12.896 50.015 13.1 50.127 13.196C50.239 13.292 50.375 13.34 50.535 13.34C50.679 13.34 50.823 13.324 50.967 13.292C51.111 13.26 51.235 13.228 51.339 13.196L51.483 13.856C51.331 13.92 51.143 13.972 50.919 14.012C50.703 14.052 50.515 14.072 50.355 14.072C49.987 14.072 49.691 13.964 49.467 13.748C49.251 13.532 49.143 13.236 49.143 12.86V5.24ZM52.3766 14V7.748H53.1926V14H52.3766ZM52.3766 6.44V5.24H53.1926V6.44H52.3766ZM60.2458 14H59.4298V10.508C59.4298 9.772 59.3218 9.236 59.1058 8.9C58.8898 8.556 58.5498 8.384 58.0858 8.384C57.7658 8.384 57.4498 8.464 57.1378 8.624C56.8258 8.776 56.5498 8.988 56.3098 9.26C56.0778 9.524 55.9098 9.828 55.8058 10.172V14H54.9898V7.748H55.7338V9.164C55.9018 8.86 56.1218 8.596 56.3938 8.372C56.6658 8.14 56.9738 7.96 57.3178 7.832C57.6618 7.704 58.0178 7.64 58.3858 7.64C58.7298 7.64 59.0218 7.704 59.2618 7.832C59.5018 7.96 59.6938 8.144 59.8378 8.384C59.9818 8.616 60.0858 8.9 60.1498 9.236C60.2138 9.564 60.2458 9.932 60.2458 10.34V14ZM64.6859 14.12C64.2379 14.12 63.8219 14.036 63.4379 13.868C63.0539 13.692 62.7219 13.456 62.4419 13.16C62.1619 12.856 61.9419 12.508 61.7819 12.116C61.6299 11.724 61.5539 11.304 61.5539 10.856C61.5539 10.272 61.6859 9.736 61.9499 9.248C62.2219 8.76 62.5939 8.372 63.0659 8.084C63.5379 7.788 64.0739 7.64 64.6739 7.64C65.2899 7.64 65.8259 7.788 66.2819 8.084C66.7459 8.38 67.1099 8.772 67.3739 9.26C67.6379 9.74 67.7699 10.268 67.7699 10.844C67.7699 10.908 67.7699 10.972 67.7699 11.036C67.7699 11.092 67.7659 11.136 67.7579 11.168H62.4059C62.4459 11.616 62.5699 12.016 62.7779 12.368C62.9939 12.712 63.2699 12.988 63.6059 13.196C63.9499 13.396 64.3219 13.496 64.7219 13.496C65.1299 13.496 65.5139 13.392 65.8739 13.184C66.2419 12.976 66.4979 12.704 66.6419 12.368L67.3499 12.56C67.2219 12.856 67.0259 13.124 66.7619 13.364C66.4979 13.604 66.1859 13.792 65.8259 13.928C65.4739 14.056 65.0939 14.12 64.6859 14.12ZM62.3819 10.58H67.0019C66.9699 10.124 66.8459 9.724 66.6299 9.38C66.4219 9.036 66.1459 8.768 65.8019 8.576C65.4659 8.376 65.0939 8.276 64.6859 8.276C64.2779 8.276 63.9059 8.376 63.5699 8.576C63.2339 8.768 62.9579 9.04 62.7419 9.392C62.5339 9.736 62.4139 10.132 62.3819 10.58ZM68.6089 10.892C68.6089 10.3 68.7289 9.76 68.9689 9.272C69.2169 8.776 69.5569 8.38 69.9889 8.084C70.4209 7.788 70.9129 7.64 71.4649 7.64C71.9849 7.64 72.4489 7.78 72.8569 8.06C73.2729 8.332 73.5969 8.664 73.8289 9.056V5.24H74.6449V13.016C74.6449 13.128 74.6689 13.212 74.7169 13.268C74.7649 13.316 74.8369 13.344 74.9329 13.352V14C74.7729 14.024 74.6489 14.032 74.5609 14.024C74.3929 14.016 74.2449 13.948 74.1169 13.82C73.9889 13.692 73.9249 13.552 73.9249 13.4V12.788C73.6769 13.196 73.3409 13.52 72.9169 13.76C72.4929 14 72.0529 14.12 71.5969 14.12C71.1649 14.12 70.7649 14.032 70.3969 13.856C70.0369 13.68 69.7209 13.44 69.4489 13.136C69.1849 12.832 68.9769 12.488 68.8249 12.104C68.6809 11.712 68.6089 11.308 68.6089 10.892ZM73.8289 11.852V9.92C73.7249 9.632 73.5569 9.372 73.3249 9.14C73.0929 8.9 72.8289 8.712 72.5329 8.576C72.2449 8.432 71.9569 8.36 71.6689 8.36C71.3329 8.36 71.0289 8.432 70.7569 8.576C70.4849 8.712 70.2489 8.9 70.0489 9.14C69.8569 9.38 69.7089 9.652 69.6049 9.956C69.5009 10.26 69.4489 10.572 69.4489 10.892C69.4489 11.228 69.5049 11.548 69.6169 11.852C69.7369 12.156 69.9049 12.428 70.1209 12.668C70.3369 12.9 70.5849 13.08 70.8649 13.208C71.1449 13.336 71.4489 13.4 71.7769 13.4C71.9849 13.4 72.2009 13.36 72.4249 13.28C72.6489 13.2 72.8609 13.092 73.0609 12.956C73.2689 12.812 73.4409 12.644 73.5769 12.452C73.7129 12.26 73.7969 12.06 73.8289 11.852Z" fill="#F43F5E"/>
</svg>
