<svg width="18" height="18" viewBox="0 0 18 18" fill="none" xmlns="http://www.w3.org/2000/svg">
<path d="M6.75 14.25C6.75 14.8125 6.5925 15.345 6.315 15.795C5.7975 16.665 4.845 17.25 3.75 17.25C2.655 17.25 1.7025 16.665 1.185 15.795C0.907501 15.345 0.75 14.8125 0.75 14.25C0.75 12.5925 2.0925 11.25 3.75 11.25C5.4075 11.25 6.75 12.5925 6.75 14.25Z" stroke="#373435" stroke-width="1.5" stroke-miterlimit="10" stroke-linecap="round" stroke-linejoin="round"/>
<path d="M2.58105 14.2496L3.32356 14.9921L4.92106 13.5146" stroke="#373435" stroke-width="1.5" stroke-linecap="round" stroke-linejoin="round"/>
<path d="M13.3136 5.28748C13.1336 5.25748 12.9461 5.24999 12.7511 5.24999H5.25106C5.04106 5.24999 4.83855 5.26498 4.64355 5.29498C4.74855 5.08498 4.89856 4.89001 5.07856 4.71001L7.51606 2.265C8.54356 1.245 10.2086 1.245 11.2361 2.265L12.5486 3.59247C13.0286 4.06497 13.2836 4.66498 13.3136 5.28748Z" stroke="#373435" stroke-width="1.5" stroke-linecap="round" stroke-linejoin="round"/>
<path d="M16.5 9V12.75C16.5 15 15 16.5 12.75 16.5H5.7225C5.955 16.305 6.1575 16.065 6.315 15.795C6.5925 15.345 6.75 14.8125 6.75 14.25C6.75 12.5925 5.4075 11.25 3.75 11.25C2.85 11.25 2.0475 11.6475 1.5 12.27V9C1.5 6.96 2.73 5.535 4.6425 5.295C4.8375 5.265 5.04 5.25 5.25 5.25H12.75C12.945 5.25 13.1325 5.25749 13.3125 5.28749C15.2475 5.51249 16.5 6.945 16.5 9Z" stroke="#373435" stroke-width="1.5" stroke-linecap="round" stroke-linejoin="round"/>
<path d="M16.5 9.375H14.25C13.425 9.375 12.75 10.05 12.75 10.875C12.75 11.7 13.425 12.375 14.25 12.375H16.5" stroke="#373435" stroke-width="1.5" stroke-linecap="round" stroke-linejoin="round"/>
</svg>
