<svg width="20" height="20" viewBox="0 0 23 23" fill="none" xmlns="http://www.w3.org/2000/svg">
              <path d="M9 18C9 18.75 8.79 19.46 8.42 20.06C7.73 21.22 6.46 22 5 22C3.54 22 2.27 21.22 1.58 20.06C1.21 19.46 1 18.75 1 18C1 15.79 2.79 14 5 14C7.21 14 9 15.79 9 18Z" stroke="#797778" stroke-width="1.5" stroke-miterlimit="10" stroke-linecap="round" stroke-linejoin="round"/>
              <path d="M3.44141 17.9995L4.43141 18.9895L6.56141 17.0195" stroke="#797778" stroke-width="1.5" stroke-linecap="round" stroke-linejoin="round"/>
              <path d="M17.7514 6.04997C17.5114 6.00997 17.2614 5.99998 17.0014 5.99998H7.00141C6.72141 5.99998 6.45141 6.01998 6.19141 6.05998C6.33141 5.77998 6.53141 5.52001 6.77141 5.28001L10.0214 2.02C11.3914 0.66 13.6114 0.66 14.9814 2.02L16.7314 3.78996C17.3714 4.41996 17.7114 5.21997 17.7514 6.04997Z" stroke="#797778" stroke-width="1.5" stroke-linecap="round" stroke-linejoin="round"/>
              <path d="M22 11V16C22 19 20 21 17 21H7.63C7.94 20.74 8.21 20.42 8.42 20.06C8.79 19.46 9 18.75 9 18C9 15.79 7.21 14 5 14C3.8 14 2.73 14.53 2 15.36V11C2 8.28 3.64 6.38 6.19 6.06C6.45 6.02 6.72 6 7 6H17C17.26 6 17.51 6.00999 17.75 6.04999C20.33 6.34999 22 8.26 22 11Z" stroke="#797778" stroke-width="1.5" stroke-linecap="round" stroke-linejoin="round"/>
              <path d="M22 11.5H19C17.9 11.5 17 12.4 17 13.5C17 14.6 17.9 15.5 19 15.5H22" stroke="#797778" stroke-width="1.5" stroke-linecap="round" stroke-linejoin="round"/>
              </svg>