<svg width="32" height="32" viewBox="0 0 32 32" fill="none" xmlns="http://www.w3.org/2000/svg">
<rect width="32" height="32" rx="6" fill="#FEF1E8"/>
<path d="M21 11.9667C20.95 11.9583 20.8917 11.9583 20.8417 11.9667C19.6917 11.925 18.775 10.9833 18.775 9.81666C18.775 8.62499 19.7333 7.66666 20.925 7.66666C22.1167 7.66666 23.075 8.63332 23.075 9.81666C23.0667 10.9833 22.15 11.925 21 11.9667Z" stroke="#F97316" stroke-width="1.5" stroke-linecap="round" stroke-linejoin="round"/>
<path d="M20.1417 18.0333C21.2833 18.225 22.5417 18.025 23.425 17.4333C24.6 16.65 24.6 15.3667 23.425 14.5833C22.5333 13.9917 21.2583 13.7917 20.1167 13.9917" stroke="#F97316" stroke-width="1.5" stroke-linecap="round" stroke-linejoin="round"/>
<path d="M10.975 11.9667C11.025 11.9583 11.0833 11.9583 11.1333 11.9667C12.2833 11.925 13.2 10.9833 13.2 9.81666C13.2 8.62499 12.2417 7.66666 11.05 7.66666C9.85833 7.66666 8.89999 8.63332 8.89999 9.81666C8.90833 10.9833 9.825 11.925 10.975 11.9667Z" stroke="#F97316" stroke-width="1.5" stroke-linecap="round" stroke-linejoin="round"/>
<path d="M11.8333 18.0333C10.6917 18.225 9.43333 18.025 8.55 17.4333C7.375 16.65 7.375 15.3667 8.55 14.5833C9.44166 13.9917 10.7167 13.7917 11.8583 13.9917" stroke="#F97316" stroke-width="1.5" stroke-linecap="round" stroke-linejoin="round"/>
<path d="M16 18.1917C15.95 18.1833 15.8917 18.1833 15.8417 18.1917C14.6917 18.15 13.775 17.2083 13.775 16.0417C13.775 14.85 14.7333 13.8917 15.925 13.8917C17.1167 13.8917 18.075 14.8583 18.075 16.0417C18.0667 17.2083 17.15 18.1583 16 18.1917Z" stroke="#F97316" stroke-width="1.5" stroke-linecap="round" stroke-linejoin="round"/>
<path d="M18.425 20.8167C17.1 19.9333 14.9083 19.9333 13.575 20.8167C12.4 21.6 12.4 22.8833 13.575 23.6667C14.9083 24.5583 17.0917 24.5583 18.425 23.6667" stroke="#F97316" stroke-width="1.5" stroke-linecap="round" stroke-linejoin="round"/>
</svg>
