<svg width="20" height="20" viewBox="0 0 14 19" fill="none" xmlns="http://www.w3.org/2000/svg">
              <path d="M12.4166 16.25H9.08331" stroke="#797778" stroke-width="1.5" stroke-linecap="round" stroke-linejoin="round"/>
              <path d="M10.75 17.9167V14.5833" stroke="#797778" stroke-width="1.5" stroke-linecap="round" stroke-linejoin="round"/>
              <path d="M7.13335 9.05832C7.05002 9.04999 6.95002 9.04999 6.85835 9.05832C4.87502 8.99166 3.30002 7.36666 3.30002 5.36666C3.29169 3.32499 4.95002 1.66666 6.99169 1.66666C9.03335 1.66666 10.6917 3.32499 10.6917 5.36666C10.6917 7.36666 9.10835 8.99166 7.13335 9.05832Z" stroke="#797778" stroke-width="1.5" stroke-linecap="round" stroke-linejoin="round"/>
              <path d="M6.99164 18.175C5.47497 18.175 3.96664 17.7917 2.81664 17.025C0.799972 15.675 0.799972 13.475 2.81664 12.1333C5.1083 10.6 8.86664 10.6 11.1583 12.1333" stroke="#797778" stroke-width="1.5" stroke-linecap="round" stroke-linejoin="round"/>
              </svg>