<svg width="16" height="16" viewBox="0 0 16 16" fill="none" xmlns="http://www.w3.org/2000/svg">
<path d="M12.3334 13H9.66669" stroke="#70757C" stroke-width="1.5" stroke-linecap="round" stroke-linejoin="round"/>
<path d="M11 14.3334V11.6667" stroke="#70757C" stroke-width="1.5" stroke-linecap="round" stroke-linejoin="round"/>
<path d="M8.10667 7.24665C8.04 7.23998 7.96 7.23998 7.88667 7.24665C6.3 7.19331 5.04 5.89331 5.04 4.29331C5.03334 2.65998 6.36 1.33331 7.99334 1.33331C9.62667 1.33331 10.9533 2.65998 10.9533 4.29331C10.9533 5.89331 9.68667 7.19331 8.10667 7.24665Z" stroke="#70757C" stroke-width="1.5" stroke-linecap="round" stroke-linejoin="round"/>
<path d="M7.99336 14.54C6.78003 14.54 5.57336 14.2333 4.65336 13.62C3.04003 12.54 3.04003 10.78 4.65336 9.70668C6.48669 8.48002 9.49336 8.48002 11.3267 9.70668" stroke="#70757C" stroke-width="1.5" stroke-linecap="round" stroke-linejoin="round"/>
</svg>
