<svg width="75" height="13" viewBox="0 0 75 13" fill="none" xmlns="http://www.w3.org/2000/svg">
<path d="M8.37498 6.62498L8.99998 5.99998C9.82841 5.17156 9.82841 3.82841 8.99998 2.99998C8.17156 2.17156 6.82841 2.17156 5.99998 2.99998L5.37498 3.62498M3.62498 5.37498L2.99998 5.99998C2.17156 6.82841 2.17156 8.17156 2.99998 8.99998C3.82841 9.82841 5.17156 9.82841 5.99998 8.99998L6.62498 8.37498M7.12498 4.87498L4.87498 7.12498" stroke="#E4A200" stroke-width="1.5" stroke-linecap="round" stroke-linejoin="round"/>
<path d="M21.016 10.072C20.384 10.072 19.8 9.968 19.264 9.76C18.728 9.544 18.264 9.244 17.872 8.86C17.48 8.476 17.172 8.024 16.948 7.504C16.732 6.984 16.624 6.416 16.624 5.8C16.624 5.184 16.732 4.616 16.948 4.096C17.172 3.576 17.48 3.124 17.872 2.74C18.272 2.356 18.74 2.06 19.276 1.852C19.812 1.636 20.396 1.528 21.028 1.528C21.636 1.528 22.208 1.632 22.744 1.84C23.28 2.04 23.732 2.344 24.1 2.752L23.536 3.316C23.192 2.964 22.812 2.712 22.396 2.56C21.98 2.4 21.532 2.32 21.052 2.32C20.548 2.32 20.08 2.408 19.648 2.584C19.216 2.752 18.84 2.996 18.52 3.316C18.2 3.628 17.948 3.996 17.764 4.42C17.588 4.836 17.5 5.296 17.5 5.8C17.5 6.304 17.588 6.768 17.764 7.192C17.948 7.608 18.2 7.976 18.52 8.296C18.84 8.608 19.216 8.852 19.648 9.028C20.08 9.196 20.548 9.28 21.052 9.28C21.532 9.28 21.98 9.2 22.396 9.04C22.812 8.88 23.192 8.624 23.536 8.272L24.1 8.836C23.732 9.244 23.28 9.552 22.744 9.76C22.208 9.968 21.632 10.072 21.016 10.072ZM28.0998 10.06C27.4918 10.06 26.9438 9.924 26.4558 9.652C25.9758 9.372 25.5958 8.992 25.3158 8.512C25.0358 8.024 24.8958 7.468 24.8958 6.844C24.8958 6.212 25.0358 5.656 25.3158 5.176C25.5958 4.696 25.9758 4.32 26.4558 4.048C26.9358 3.776 27.4838 3.64 28.0998 3.64C28.7238 3.64 29.2758 3.776 29.7558 4.048C30.2438 4.32 30.6238 4.696 30.8958 5.176C31.1758 5.656 31.3158 6.212 31.3158 6.844C31.3158 7.468 31.1758 8.024 30.8958 8.512C30.6238 8.992 30.2438 9.372 29.7558 9.652C29.2678 9.924 28.7158 10.06 28.0998 10.06ZM28.0998 9.304C28.5558 9.304 28.9598 9.204 29.3118 9.004C29.6638 8.796 29.9398 8.508 30.1398 8.14C30.3478 7.764 30.4518 7.332 30.4518 6.844C30.4518 6.348 30.3478 5.916 30.1398 5.548C29.9398 5.18 29.6638 4.896 29.3118 4.696C28.9598 4.488 28.5598 4.384 28.1118 4.384C27.6638 4.384 27.2638 4.488 26.9118 4.696C26.5598 4.896 26.2798 5.18 26.0718 5.548C25.8638 5.916 25.7598 6.348 25.7598 6.844C25.7598 7.332 25.8638 7.764 26.0718 8.14C26.2798 8.508 26.5598 8.796 26.9118 9.004C27.2638 9.204 27.6598 9.304 28.0998 9.304ZM36.3072 10.06C35.7632 10.06 35.2712 9.936 34.8312 9.688C34.3912 9.432 34.0392 9.068 33.7752 8.596C33.5192 8.116 33.3912 7.532 33.3912 6.844C33.3912 6.156 33.5192 5.576 33.7752 5.104C34.0312 4.624 34.3792 4.26 34.8192 4.012C35.2592 3.764 35.7552 3.64 36.3072 3.64C36.9072 3.64 37.4432 3.776 37.9152 4.048C38.3952 4.312 38.7712 4.688 39.0432 5.176C39.3152 5.656 39.4512 6.212 39.4512 6.844C39.4512 7.484 39.3152 8.044 39.0432 8.524C38.7712 9.004 38.3952 9.38 37.9152 9.652C37.4432 9.924 36.9072 10.06 36.3072 10.06ZM33.0552 12.328V3.7H33.8712V5.596L33.7872 6.856L33.9072 8.128V12.328H33.0552ZM36.2472 9.304C36.6952 9.304 37.0952 9.204 37.4472 9.004C37.7992 8.796 38.0792 8.508 38.2872 8.14C38.4952 7.764 38.5992 7.332 38.5992 6.844C38.5992 6.356 38.4952 5.928 38.2872 5.56C38.0792 5.192 37.7992 4.904 37.4472 4.696C37.0952 4.488 36.6952 4.384 36.2472 4.384C35.7992 4.384 35.3952 4.488 35.0352 4.696C34.6832 4.904 34.4032 5.192 34.1952 5.56C33.9952 5.928 33.8952 6.356 33.8952 6.844C33.8952 7.332 33.9952 7.764 34.1952 8.14C34.4032 8.508 34.6832 8.796 35.0352 9.004C35.3952 9.204 35.7992 9.304 36.2472 9.304ZM41.0602 12.388C40.7642 12.388 40.4802 12.34 40.2082 12.244C39.9442 12.148 39.7162 12.004 39.5242 11.812L39.9202 11.176C40.0802 11.328 40.2522 11.444 40.4362 11.524C40.6282 11.612 40.8402 11.656 41.0722 11.656C41.3522 11.656 41.5922 11.576 41.7922 11.416C42.0002 11.264 42.1962 10.992 42.3802 10.6L42.7882 9.676L42.8842 9.544L45.4762 3.7H46.3162L43.1602 10.756C42.9842 11.164 42.7882 11.488 42.5722 11.728C42.3642 11.968 42.1362 12.136 41.8882 12.232C41.6402 12.336 41.3642 12.388 41.0602 12.388ZM42.7402 10.18L39.8362 3.7H40.7242L43.2922 9.484L42.7402 10.18ZM50.8368 10V1.6H51.7248V9.232H56.4288V10H50.8368ZM57.7232 10V3.7H58.5752V10H57.7232ZM58.1552 2.308C57.9792 2.308 57.8312 2.248 57.7112 2.128C57.5912 2.008 57.5312 1.864 57.5312 1.696C57.5312 1.528 57.5912 1.388 57.7112 1.276C57.8312 1.156 57.9792 1.096 58.1552 1.096C58.3312 1.096 58.4792 1.152 58.5992 1.264C58.7192 1.376 58.7792 1.516 58.7792 1.684C58.7792 1.86 58.7192 2.008 58.5992 2.128C58.4872 2.248 58.3392 2.308 58.1552 2.308ZM64.1618 3.64C64.6738 3.64 65.1218 3.74 65.5058 3.94C65.8978 4.132 66.2018 4.428 66.4178 4.828C66.6418 5.228 66.7538 5.732 66.7538 6.34V10H65.9018V6.424C65.9018 5.76 65.7338 5.26 65.3978 4.924C65.0698 4.58 64.6058 4.408 64.0058 4.408C63.5578 4.408 63.1658 4.5 62.8298 4.684C62.5018 4.86 62.2458 5.12 62.0618 5.464C61.8858 5.8 61.7978 6.208 61.7978 6.688V10H60.9458V3.7H61.7618V5.428L61.6298 5.104C61.8298 4.648 62.1498 4.292 62.5898 4.036C63.0298 3.772 63.5538 3.64 64.1618 3.64ZM69.7272 8.368L69.7512 7.276L73.6752 3.7H74.7192L71.9472 6.352L71.4672 6.76L69.7272 8.368ZM69.0552 10V1.096H69.9072V10H69.0552ZM73.9392 10L71.3112 6.724L71.8632 6.064L74.9832 10H73.9392Z" fill="#E4A200"/>
</svg>
