<svg width="16" height="18" viewBox="0 0 16 18" fill="none" xmlns="http://www.w3.org/2000/svg">
<path d="M5.87001 8.1525C5.79501 8.145 5.70501 8.145 5.62251 8.1525C3.83751 8.0925 2.42001 6.63 2.42001 4.83C2.42001 2.9925 3.90501 1.5 5.75001 1.5C7.58751 1.5 9.08001 2.9925 9.08001 4.83C9.07251 6.63 7.65501 8.0925 5.87001 8.1525Z" stroke="#373435" stroke-width="1.5" stroke-linecap="round" stroke-linejoin="round"/>
<path d="M11.3075 3C12.7625 3 13.9325 4.1775 13.9325 5.625C13.9325 7.0425 12.8075 8.1975 11.405 8.25C11.345 8.2425 11.2775 8.2425 11.21 8.25" stroke="#373435" stroke-width="1.5" stroke-linecap="round" stroke-linejoin="round"/>
<path d="M2.12001 10.92C0.305009 12.135 0.305009 14.115 2.12001 15.3225C4.18251 16.7025 7.56501 16.7025 9.62751 15.3225C11.4425 14.1075 11.4425 12.1275 9.62751 10.92C7.57251 9.5475 4.19001 9.5475 2.12001 10.92Z" stroke="#373435" stroke-width="1.5" stroke-linecap="round" stroke-linejoin="round"/>
<path d="M12.755 15C13.295 14.8875 13.805 14.67 14.225 14.3475C15.395 13.47 15.395 12.0225 14.225 11.145C13.8125 10.83 13.31 10.62 12.7775 10.5" stroke="#373435" stroke-width="1.5" stroke-linecap="round" stroke-linejoin="round"/>
</svg>
