<svg width="88" height="20" viewBox="0 0 80 20" fill="none" xmlns="http://www.w3.org/2000/svg">
<rect width="80" height="20" rx="10" fill="#FEF3C7"/>
<circle cx="14" cy="10" r="3" fill="#F59E0B"/>
<path d="M27.068 14V5.48H30.596C30.964 5.48 31.3 5.556 31.604 5.708C31.916 5.86 32.184 6.068 32.408 6.332C32.632 6.588 32.808 6.876 32.936 7.196C33.064 7.508 33.128 7.828 33.128 8.156C33.128 8.62 33.024 9.06 32.816 9.476C32.616 9.884 32.332 10.216 31.964 10.472C31.596 10.728 31.164 10.856 30.668 10.856H27.908V14H27.068ZM27.908 10.112H30.632C30.968 10.112 31.26 10.02 31.508 9.836C31.756 9.652 31.948 9.412 32.084 9.116C32.22 8.82 32.288 8.5 32.288 8.156C32.288 7.804 32.208 7.48 32.048 7.184C31.888 6.888 31.676 6.656 31.412 6.488C31.156 6.312 30.872 6.224 30.56 6.224H27.908V10.112ZM36.9477 14.12C36.4997 14.12 36.0837 14.036 35.6997 13.868C35.3157 13.692 34.9837 13.456 34.7037 13.16C34.4237 12.856 34.2037 12.508 34.0437 12.116C33.8917 11.724 33.8157 11.304 33.8157 10.856C33.8157 10.272 33.9477 9.736 34.2117 9.248C34.4837 8.76 34.8557 8.372 35.3277 8.084C35.7997 7.788 36.3357 7.64 36.9357 7.64C37.5517 7.64 38.0877 7.788 38.5437 8.084C39.0077 8.38 39.3717 8.772 39.6357 9.26C39.8997 9.74 40.0317 10.268 40.0317 10.844C40.0317 10.908 40.0317 10.972 40.0317 11.036C40.0317 11.092 40.0277 11.136 40.0197 11.168H34.6677C34.7077 11.616 34.8317 12.016 35.0397 12.368C35.2557 12.712 35.5317 12.988 35.8677 13.196C36.2117 13.396 36.5837 13.496 36.9837 13.496C37.3917 13.496 37.7757 13.392 38.1357 13.184C38.5037 12.976 38.7597 12.704 38.9037 12.368L39.6117 12.56C39.4837 12.856 39.2877 13.124 39.0237 13.364C38.7597 13.604 38.4477 13.792 38.0877 13.928C37.7357 14.056 37.3557 14.12 36.9477 14.12ZM34.6437 10.58H39.2637C39.2317 10.124 39.1077 9.724 38.8917 9.38C38.6837 9.036 38.4077 8.768 38.0637 8.576C37.7277 8.376 37.3557 8.276 36.9477 8.276C36.5397 8.276 36.1677 8.376 35.8317 8.576C35.4957 8.768 35.2197 9.04 35.0037 9.392C34.7957 9.736 34.6757 10.132 34.6437 10.58ZM46.5466 14H45.7306V10.508C45.7306 9.772 45.6226 9.236 45.4066 8.9C45.1906 8.556 44.8506 8.384 44.3866 8.384C44.0666 8.384 43.7506 8.464 43.4386 8.624C43.1266 8.776 42.8506 8.988 42.6106 9.26C42.3786 9.524 42.2106 9.828 42.1066 10.172V14H41.2906V7.748H42.0346V9.164C42.2026 8.86 42.4226 8.596 42.6946 8.372C42.9666 8.14 43.2746 7.96 43.6186 7.832C43.9626 7.704 44.3186 7.64 44.6866 7.64C45.0306 7.64 45.3226 7.704 45.5626 7.832C45.8026 7.96 45.9946 8.144 46.1386 8.384C46.2826 8.616 46.3866 8.9 46.4506 9.236C46.5146 9.564 46.5466 9.932 46.5466 10.34V14ZM47.8667 10.892C47.8667 10.3 47.9867 9.76 48.2267 9.272C48.4747 8.776 48.8147 8.38 49.2467 8.084C49.6787 7.788 50.1707 7.64 50.7227 7.64C51.2427 7.64 51.7067 7.78 52.1147 8.06C52.5307 8.332 52.8547 8.664 53.0867 9.056V5.24H53.9027V13.016C53.9027 13.128 53.9267 13.212 53.9747 13.268C54.0227 13.316 54.0947 13.344 54.1907 13.352V14C54.0307 14.024 53.9067 14.032 53.8187 14.024C53.6507 14.016 53.5027 13.948 53.3747 13.82C53.2467 13.692 53.1827 13.552 53.1827 13.4V12.788C52.9347 13.196 52.5987 13.52 52.1747 13.76C51.7507 14 51.3107 14.12 50.8547 14.12C50.4227 14.12 50.0227 14.032 49.6547 13.856C49.2947 13.68 48.9787 13.44 48.7067 13.136C48.4427 12.832 48.2347 12.488 48.0827 12.104C47.9387 11.712 47.8667 11.308 47.8667 10.892ZM53.0867 11.852V9.92C52.9827 9.632 52.8147 9.372 52.5827 9.14C52.3507 8.9 52.0867 8.712 51.7907 8.576C51.5027 8.432 51.2147 8.36 50.9267 8.36C50.5907 8.36 50.2867 8.432 50.0147 8.576C49.7427 8.712 49.5067 8.9 49.3067 9.14C49.1147 9.38 48.9667 9.652 48.8627 9.956C48.7587 10.26 48.7067 10.572 48.7067 10.892C48.7067 11.228 48.7627 11.548 48.8747 11.852C48.9947 12.156 49.1627 12.428 49.3787 12.668C49.5947 12.9 49.8427 13.08 50.1227 13.208C50.4027 13.336 50.7067 13.4 51.0347 13.4C51.2427 13.4 51.4587 13.36 51.6827 13.28C51.9067 13.2 52.1187 13.092 52.3187 12.956C52.5267 12.812 52.6987 12.644 52.8347 12.452C52.9707 12.26 53.0547 12.06 53.0867 11.852ZM55.7516 14V7.748H56.5676V14H55.7516ZM55.7516 6.44V5.24H56.5676V6.44H55.7516ZM63.6208 14H62.8048V10.508C62.8048 9.772 62.6968 9.236 62.4808 8.9C62.2648 8.556 61.9248 8.384 61.4608 8.384C61.1408 8.384 60.8248 8.464 60.5128 8.624C60.2008 8.776 59.9248 8.988 59.6848 9.26C59.4528 9.524 59.2848 9.828 59.1808 10.172V14H58.3648V7.748H59.1088V9.164C59.2768 8.86 59.4968 8.596 59.7688 8.372C60.0408 8.14 60.3488 7.96 60.6928 7.832C61.0368 7.704 61.3928 7.64 61.7608 7.64C62.1048 7.64 62.3968 7.704 62.6368 7.832C62.8768 7.96 63.0688 8.144 63.2128 8.384C63.3568 8.616 63.4608 8.9 63.5248 9.236C63.5888 9.564 63.6208 9.932 63.6208 10.34V14ZM67.8689 14.084C67.4449 14.084 67.0529 13.996 66.6929 13.82C66.3329 13.644 66.0209 13.408 65.7569 13.112C65.5009 12.808 65.3009 12.464 65.1569 12.08C65.0129 11.696 64.9409 11.3 64.9409 10.892C64.9409 10.452 65.0089 10.04 65.1449 9.656C65.2889 9.264 65.4889 8.916 65.7449 8.612C66.0089 8.308 66.3169 8.072 66.6689 7.904C67.0209 7.728 67.4129 7.64 67.8449 7.64C68.3809 7.64 68.8449 7.776 69.2369 8.048C69.6369 8.32 69.9729 8.656 70.2449 9.056V7.748H70.9769V14.024C70.9769 14.6 70.8369 15.084 70.5569 15.476C70.2849 15.876 69.9129 16.176 69.4409 16.376C68.9769 16.576 68.4689 16.676 67.9169 16.676C67.2049 16.676 66.6289 16.548 66.1889 16.292C65.7489 16.036 65.3889 15.692 65.1089 15.26L65.6129 14.864C65.8609 15.256 66.1889 15.548 66.5969 15.74C67.0129 15.932 67.4529 16.028 67.9169 16.028C68.3249 16.028 68.6969 15.952 69.0329 15.8C69.3769 15.656 69.6489 15.436 69.8489 15.14C70.0569 14.844 70.1609 14.472 70.1609 14.024V12.788C69.9209 13.18 69.5929 13.496 69.1769 13.736C68.7609 13.968 68.3249 14.084 67.8689 14.084ZM68.0969 13.4C68.3449 13.4 68.5809 13.356 68.8049 13.268C69.0369 13.18 69.2489 13.064 69.4409 12.92C69.6329 12.768 69.7929 12.6 69.9209 12.416C70.0489 12.232 70.1289 12.044 70.1609 11.852V9.92C70.0409 9.616 69.8689 9.348 69.6449 9.116C69.4209 8.876 69.1649 8.692 68.8769 8.564C68.5969 8.428 68.3049 8.36 68.0009 8.36C67.6489 8.36 67.3329 8.436 67.0529 8.588C66.7809 8.732 66.5489 8.928 66.3569 9.176C66.1729 9.416 66.0289 9.688 65.9249 9.992C65.8209 10.296 65.7689 10.6 65.7689 10.904C65.7689 11.24 65.8289 11.56 65.9489 11.864C66.0689 12.16 66.2329 12.428 66.4409 12.668C66.6569 12.9 66.9049 13.08 67.1849 13.208C67.4729 13.336 67.7769 13.4 68.0969 13.4Z" fill="#F59E0B"/>
</svg>
