 <svg width="20" height="20" viewBox="0 0 20 18" fill="none" xmlns="http://www.w3.org/2000/svg">
              <path d="M10 11.5C11.3807 11.5 12.5 10.3807 12.5 9C12.5 7.61929 11.3807 6.5 10 6.5C8.61929 6.5 7.5 7.61929 7.5 9C7.5 10.3807 8.61929 11.5 10 11.5Z" stroke="#797778" stroke-width="1.5" stroke-miterlimit="10" stroke-linecap="round" stroke-linejoin="round"/>
              <path d="M1.66669 9.73333V8.26666C1.66669 7.4 2.37502 6.68333 3.25002 6.68333C4.75835 6.68333 5.37502 5.61666 4.61669 4.30833C4.18335 3.55833 4.44169 2.58333 5.20002 2.15L6.64169 1.325C7.30002 0.933331 8.15002 1.16666 8.54169 1.825L8.63335 1.98333C9.38335 3.29166 10.6167 3.29166 11.375 1.98333L11.4667 1.825C11.8584 1.16666 12.7084 0.933331 13.3667 1.325L14.8084 2.15C15.5667 2.58333 15.825 3.55833 15.3917 4.30833C14.6334 5.61666 15.25 6.68333 16.7584 6.68333C17.625 6.68333 18.3417 7.39166 18.3417 8.26666V9.73333C18.3417 10.6 17.6334 11.3167 16.7584 11.3167C15.25 11.3167 14.6334 12.3833 15.3917 13.6917C15.825 14.45 15.5667 15.4167 14.8084 15.85L13.3667 16.675C12.7084 17.0667 11.8584 16.8333 11.4667 16.175L11.375 16.0167C10.625 14.7083 9.39169 14.7083 8.63335 16.0167L8.54169 16.175C8.15002 16.8333 7.30002 17.0667 6.64169 16.675L5.20002 15.85C4.44169 15.4167 4.18335 14.4417 4.61669 13.6917C5.37502 12.3833 4.75835 11.3167 3.25002 11.3167C2.37502 11.3167 1.66669 10.6 1.66669 9.73333Z" stroke="#797778" stroke-width="1.5" stroke-miterlimit="10" stroke-linecap="round" stroke-linejoin="round"/>
              </svg>