<svg width="13" height="12" viewBox="0 0 13 12" fill="none" xmlns="http://www.w3.org/2000/svg">
<path d="M11.3333 5.99984C11.3333 8.66921 9.16934 10.8332 6.49996 10.8332C3.83058 10.8332 1.66663 8.66921 1.66663 5.99984C1.66663 3.33046 3.83058 1.1665 6.49996 1.1665C9.16934 1.1665 11.3333 3.33046 11.3333 5.99984Z" stroke="#797778" stroke-width="1.5" stroke-linecap="round" stroke-linejoin="round"/>
<path d="M5 4.6665C5 4.6665 5.16667 3.1665 6.5 3.1665C7.83333 3.1665 8 3.99984 8 4.6665C8 5.1674 7.71774 5.6683 7.15322 5.88643C6.80977 6.01914 6.5 6.29831 6.5 6.6665V6.83317" stroke="#797778" stroke-width="1.5" stroke-linecap="round" stroke-linejoin="round"/>
<path d="M6.83329 8.66683C6.83329 8.85092 6.68405 9.00016 6.49996 9.00016C6.31586 9.00016 6.16663 8.85092 6.16663 8.66683C6.16663 8.48273 6.31586 8.3335 6.49996 8.3335C6.68405 8.3335 6.83329 8.48273 6.83329 8.66683Z" stroke="#797778" stroke-linecap="round" stroke-linejoin="round"/>
</svg>
